<svg xmlns="http://www.w3.org/2000/svg" xmlns:xlink="http://www.w3.org/1999/xlink" version="1.1" width="50" height="50" enable-background="new 0 0 50 50" xml:space="preserve"><rect id="backgroundrect" width="100%" height="100%" x="0" y="0" fill="none" stroke="none"/>

<g class="currentLayer" style=""><title>Layer 1</title><g id="svg_1" class="selected" fill="#6d6d6d" fill-opacity="1">
	<g id="svg_2" fill="#6d6d6d" fill-opacity="1">
		<path fill="#6d6d6d" d="M30.336,45.204h-3.305V9.644h13.926l-5.898,9.359c-0.299,0.475-0.156,1.103,0.316,1.401    c0.172,0.106,0.359,0.157,0.541,0.157c0.34,0,0.67-0.167,0.861-0.474l5.115-8.118l5.115,8.118    c0.301,0.475,0.926,0.617,1.402,0.317c0.475-0.298,0.617-0.926,0.316-1.401l-5.898-9.359h0.074c0.871,0,1.576-0.705,1.576-1.574    c0-0.87-0.705-1.575-1.576-1.575H31.32c-0.654-0.951-1.619-1.672-2.748-2.015C28.408,2.651,28.124,0,25,0    c-3.366,0-3.408,2.651-3.569,4.481c-1.13,0.343-2.096,1.063-2.75,2.015H7.098c-0.87,0-1.575,0.705-1.575,1.575    c0,0.869,0.705,1.574,1.575,1.574h0.074l-5.898,9.359c-0.299,0.475-0.156,1.103,0.318,1.401c0.168,0.106,0.356,0.157,0.541,0.157    c0.337,0,0.668-0.167,0.861-0.474l5.115-8.118l5.115,8.118c0.299,0.475,0.927,0.617,1.402,0.317    c0.475-0.298,0.617-0.926,0.317-1.401L9.044,9.644h13.925v35.56h-3.304c-1.978,0-3.581,1.602-3.581,3.58h17.833    C33.918,46.806,32.314,45.204,30.336,45.204z" id="svg_3" fill-opacity="1"/>
		<path fill="#6d6d6d" d="M15.583,21.641H0.634c-0.298,0-0.542,0.242-0.542,0.542c0,4.419,3.596,8.016,8.016,8.016    c4.419,0,8.016-3.597,8.016-8.016C16.124,21.884,15.881,21.641,15.583,21.641z" id="svg_4" fill-opacity="1"/>
		<path fill="#6d6d6d" d="M49.367,21.641H34.418c-0.297,0-0.541,0.242-0.541,0.542c0,4.419,3.596,8.016,8.016,8.016    s8.016-3.597,8.016-8.016C49.908,21.884,49.666,21.641,49.367,21.641z" id="svg_5" fill-opacity="1"/>
	</g>
</g></g></svg>