<svg xmlns="http://www.w3.org/2000/svg" xmlns:xlink="http://www.w3.org/1999/xlink" version="1.1" width="50" height="50" enable-background="new 0 0 50 50" xml:space="preserve" style=""><rect id="backgroundrect" width="100%" height="100%" x="0" y="0" fill="none" stroke="none"/>

<g class="currentLayer" style=""><title>Layer 1</title><path fill="#a8a6a6" d="M4.282,5.864h41.437c1.133,0,2.105,0.407,2.922,1.223c0.814,0.814,1.222,1.788,1.222,2.921v4.145  c0,1.133-0.407,2.107-1.222,2.921c-0.816,0.815-1.789,1.223-2.922,1.223H4.282c-1.133,0-2.106-0.407-2.921-1.223  c-0.815-0.813-1.223-1.788-1.223-2.921v-4.145c0-1.133,0.408-2.106,1.223-2.921C2.175,6.271,3.149,5.864,4.282,5.864z M4.282,22.439  h41.437c1.133,0,2.105,0.406,2.922,1.222c0.814,0.815,1.222,1.789,1.222,2.922v13.408c0,1.134-0.407,2.107-1.222,2.923  c-0.816,0.814-1.789,1.222-2.922,1.222H4.282c-1.133,0-2.106-0.407-2.921-1.222c-0.815-0.815-1.223-1.789-1.223-2.923V26.583  c0-1.133,0.408-2.106,1.223-2.922S3.149,22.439,4.282,22.439z M45.719,10.008H25v4.145h20.719V10.008z M45.719,26.583H33.287v13.408  h12.432V26.583z" id="svg_1" class="selected" fill-opacity="1"/></g></svg>