<svg xmlns="http://www.w3.org/2000/svg" xmlns:xlink="http://www.w3.org/1999/xlink" version="1.1" width="50" height="50" enable-background="new 0 0 50 50" xml:space="preserve"><rect id="backgroundrect" width="100%" height="100%" x="0" y="0" fill="none" stroke="none"/>

<g class="currentLayer" style=""><title>Layer 1</title><g id="svg_1" class="selected" fill="#a8a6a6" fill-opacity="1">
	<path fill="#a8a6a6" d="M12.847,37.67c-0.433,0.433-0.782,1.279-0.782,1.89v7.961h4.622V34.938c0-0.61-0.35-0.757-0.783-0.324   L12.847,37.67z" id="svg_2" fill-opacity="1"/>
	<path fill="#a8a6a6" d="M33.148,30.128c-0.434,0.434-0.785,1.277-0.785,1.891v15.504h4.623v-20.13c0-0.613-0.35-0.758-0.783-0.325   L33.148,30.128z" id="svg_3" fill-opacity="1"/>
	<path fill="#a8a6a6" d="M39.912,23.351c-0.432,0.433-0.783,1.278-0.783,1.89v22.279h4.297V20.951c0-0.611-0.35-0.757-0.783-0.324   L39.912,23.351z" id="svg_4" fill-opacity="1"/>
	<path fill="#a8a6a6" d="M26.518,36.756c0,0-0.205,0.209-0.461,0.462c-0.254,0.255-0.458,0.959-0.458,1.569v8.733h4.621V34.165   c0-0.61-0.35-0.758-0.783-0.325L26.518,36.756z" id="svg_5" fill-opacity="1"/>
	<path fill="#a8a6a6" d="M19.615,34.408c-0.433-0.433-0.784-0.288-0.784,0.325v12.787h4.621v-8.177c0-0.611-0.333-1.438-0.743-1.846   l-0.742-0.74L19.615,34.408z" id="svg_6" fill-opacity="1"/>
	<path fill="#a8a6a6" d="M7.031,43.49l-1.493,1.493c-0.432,0.434-0.782,1.177-0.782,1.662v0.877h5.159v-5.813   c0-0.611-0.35-0.758-0.784-0.325L7.031,43.49z" id="svg_7" fill-opacity="1"/>
	<path fill="#a8a6a6" d="M49,20.749c0.432,0.433,0.783,0.287,0.783-0.325V4.603c0-1.133-1.086-2.125-2.213-2.125H31.842   c-0.611,0-0.758,0.351-0.326,0.784l5.596,5.6l-2.281,2.271L24.245,21.727l-5.598-5.597c-0.433-0.433-1.132-0.432-1.565,0   L1.514,31.711c-1.729,1.729-1.728,4.535,0.001,6.263l0.108,0.11c1.729,1.73,4.534,1.73,6.262,0l9.979-9.984l5.599,5.594   c0.433,0.431,1.133,0.431,1.566,0l18.457-18.459L49,20.749z" id="svg_8" fill-opacity="1"/>
</g></g></svg>